<svg width="64" height="64" fill="none" xmlns="http://www.w3.org/2000/svg"><path d="M42.006 56h-19v6h19v-6Z" fill="#000"/><path d="M42.006 56h-19v6h19v-6Z" fill="url(#a)"/><path d="M15.173 2.452 1.738 15.887l3.535 3.535L18.708 5.987l-3.535-3.535Z" fill="#000"/><path d="M15.173 2.452 1.738 15.887l3.535 3.535L18.708 5.987l-3.535-3.535Z" fill="url(#b)"/><path d="m49.113 2.32-3.536 3.535 13.435 13.436 3.536-3.536L49.113 2.32Z" fill="#000"/><path d="m49.113 2.32-3.536 3.535 13.435 13.436 3.536-3.536L49.113 2.32Z" fill="url(#c)"/><path d="m44.556 9.708-2.69-.114a5.058 5.058 0 0 0-4.284 1.432l-5.505 5.505-5.753-5.754a3.839 3.839 0 0 0-3.858-.909 3.618 3.618 0 0 1-3.61-.903L18 8.11 7.395 18.718l1.728 1.727-.115 2.692a5.058 5.058 0 0 0 1.432 4.283l9.612 9.612a4.985 4.985 0 0 1 1.691-3.259l-2.995-2.995.707-.707 3.129 3.129a4.95 4.95 0 0 1 1.422-.54v-3.695l-1.722-1.722.707-.707 1.015 1.015V22.2a3.61 3.61 0 0 1 3.142-3.625 3.51 3.51 0 0 1 .991.045l-1.23-1.23.708-.707 1.796 1.796a3.542 3.542 0 0 1 3.403-1.908 3.602 3.602 0 0 1 3.175 3.332 3.558 3.558 0 0 1 1.825-.332 3.62 3.62 0 0 1 3.19 3.663v3.424a5.003 5.003 0 0 1 3.816 3.625l2.788-2.788.708.707-3.316 3.315c0 .014.004.027.004.04v3.32a3.962 3.962 0 0 0 2.379-1.128l6.84-6.84a3.84 3.84 0 0 0 .909-3.858 3.618 3.618 0 0 1 .903-3.611l.854-.854L46.284 7.98l-1.728 1.728Z" fill="#000"/><path d="m44.556 9.708-2.69-.114a5.058 5.058 0 0 0-4.284 1.432l-5.505 5.505-5.753-5.754a3.839 3.839 0 0 0-3.858-.909 3.618 3.618 0 0 1-3.61-.903L18 8.11 7.395 18.718l1.728 1.727-.115 2.692a5.058 5.058 0 0 0 1.432 4.283l9.612 9.612a4.985 4.985 0 0 1 1.691-3.259l-2.995-2.995.707-.707 3.129 3.129a4.95 4.95 0 0 1 1.422-.54v-3.695l-1.722-1.722.707-.707 1.015 1.015V22.2a3.61 3.61 0 0 1 3.142-3.625 3.51 3.51 0 0 1 .991.045l-1.23-1.23.708-.707 1.796 1.796a3.542 3.542 0 0 1 3.403-1.908 3.602 3.602 0 0 1 3.175 3.332 3.558 3.558 0 0 1 1.825-.332 3.62 3.62 0 0 1 3.19 3.663v3.424a5.003 5.003 0 0 1 3.816 3.625l2.788-2.788.708.707-3.316 3.315c0 .014.004.027.004.04v3.32a3.962 3.962 0 0 0 2.379-1.128l6.84-6.84a3.84 3.84 0 0 0 .909-3.858 3.618 3.618 0 0 1 .903-3.611l.854-.854L46.284 7.98l-1.728 1.728Z" fill="url(#d)"/><path d="M29.88 21.69a2.49 2.49 0 0 0-2.726-2.189 2.598 2.598 0 0 0-2.242 2.63V33.49a4 4 0 0 0-4 4v9.673a3.84 3.84 0 0 0 2.085 3.37 3.62 3.62 0 0 1 1.915 3.193v1.207h15v-2.444l1.984-1.822a5.058 5.058 0 0 0 2.016-4.04V31.488a4 4 0 0 0-4-4v-4.323a2.621 2.621 0 0 0-2.276-2.668 2.492 2.492 0 0 0-2.682 2.1h.458V38.04h-1V22.597h.5v-2.431a2.621 2.621 0 0 0-2.276-2.668 2.501 2.501 0 0 0-2.724 2.49v1.702h.5v15.443h-1V21.69h.468Zm-4.569 20.35h-1v-8h1v8ZM39.412 27.8h1v10.443h-1V27.8Z" fill="#000"/><path d="M29.88 21.69a2.49 2.49 0 0 0-2.726-2.189 2.598 2.598 0 0 0-2.242 2.63V33.49a4 4 0 0 0-4 4v9.673a3.84 3.84 0 0 0 2.085 3.37 3.62 3.62 0 0 1 1.915 3.193v1.207h15v-2.444l1.984-1.822a5.058 5.058 0 0 0 2.016-4.04V31.488a4 4 0 0 0-4-4v-4.323a2.621 2.621 0 0 0-2.276-2.668 2.492 2.492 0 0 0-2.682 2.1h.458V38.04h-1V22.597h.5v-2.431a2.621 2.621 0 0 0-2.276-2.668 2.501 2.501 0 0 0-2.724 2.49v1.702h.5v15.443h-1V21.69h.468Zm-4.569 20.35h-1v-8h1v8ZM39.412 27.8h1v10.443h-1V27.8Z" fill="url(#e)"/><defs><linearGradient id="a" x1="32.506" y1="56" x2="32.506" y2="62" gradientUnits="userSpaceOnUse"><stop stop-color="#EF8080"/><stop offset="1" stop-color="#F0145A"/></linearGradient><linearGradient id="b" x1="8.455" y1="9.169" x2="11.991" y2="12.705" gradientUnits="userSpaceOnUse"><stop stop-color="#EF8080"/><stop offset="1" stop-color="#F0145A"/></linearGradient><linearGradient id="c" x1="47.345" y1="4.088" x2="60.78" y2="17.523" gradientUnits="userSpaceOnUse"><stop stop-color="#EF8080"/><stop offset="1" stop-color="#F0145A"/></linearGradient><linearGradient id="d" x1="32.143" y1="7.98" x2="32.143" y2="37.032" gradientUnits="userSpaceOnUse"><stop stop-color="#EF8080"/><stop offset="1" stop-color="#F0145A"/></linearGradient><linearGradient id="e" x1="32.412" y1="17.488" x2="32.412" y2="54.932" gradientUnits="userSpaceOnUse"><stop stop-color="#EF8080"/><stop offset="1" stop-color="#F0145A"/></linearGradient></defs></svg>