<svg width="17" height="19" viewBox="0 0 17 19" fill="none" xmlns="http://www.w3.org/2000/svg">
<path d="M5.6001 1.4C5.6001 0.6265 6.2266 0 7.0001 0C7.7736 0 8.4001 0.6265 8.4001 1.4V8.35001L8.40015 7.00001C8.40015 6.22651 9.02665 5.60001 9.80015 5.60001C10.5736 5.60001 11.2001 6.22651 11.2001 7.00001V8.67644C11.2127 7.91412 11.8346 6.30002 12.6 6.30002C13.3731 6.30002 13.9999 6.92681 14 7.7C14 7.7 14.0411 8.74107 14.1332 8.80332C14.3572 8.32854 14.8402 7 15.4 7C16.1732 7 16.8 7.6268 16.8 8.4V15.4C16.8 16.9463 15.5463 18.2 14 18.2H9.3198C7.8344 18.2 6.4099 17.6099 5.3599 16.5599L3.15 14.35L1.85966e-05 12.9402C0.00510579 11.6033 1.05255 11.2 2.1 11.2C3.0023 11.2 3.8136 11.3407 5.6 12.25L5.6001 1.4Z" fill="white"/>
</svg>
